# xmcd
#
# Track frame offsets:
#	150
#	16304
#	36006
#	52496
#	84517
#	107918
#	131095
#	154624
#	177922
#	208746
#	225975
#	246471
#
# Disc length: 3538 seconds
# Revision: 0
# Processed by: cddbd v1.5.2PL0 Copyright (c) Steve Scherf et al.
# Submitted via: dBpowerAMP V12.0
#
DISCID=a20dd00c
DTITLE=Linda Mizzi - Real People
DYEAR=2018
DGENRE=Country
TTITLE0=Real People
TTITLE1=Crooked Man
TTITLE2=Be My Guess
TTITLE3=Qiqihar
TTITLE4=Freud
TTITLE5=Run To Paradise
TTITLE6=Fisherman
TTITLE7=Madamoiselle
TTITLE8=Holy Moly
TTITLE9=Janice
TTITLE10=What We Do
TTITLE11=The Kind
EXTD=
EXTT0=
EXTT1=
EXTT2=
EXTT3=
EXTT4=
EXTT5=
EXTT6=
EXTT7=
EXTT8=
EXTT9=
EXTT10=
EXTT11=
PLAYORDER=
